<?xml version="1.0" standalone="no"?><!DOCTYPE svg PUBLIC "-//W3C//DTD SVG 1.1//EN"
        "http://www.w3.org/Graphics/SVG/1.1/DTD/svg11.dtd">
<svg t="1484562912801" class="icon" style="" viewBox="0 0 1024 1024" version="1.1" xmlns="http://www.w3.org/2000/svg"
     p-id="2013" xmlns:xlink="http://www.w3.org/1999/xlink" width="48" height="48">
    <defs>
        <style type="text/css"></style>
    </defs>
    <path d="M105.083399 517.521814a17.898539 17.898539 0 0 0 8.760362 2.292479c6.292799 0 12.403347-3.314317 15.695139-9.19961L272.233702 255.633449l142.600605 254.977139a17.970211 17.970211 0 0 0 15.676708 9.198585h0.005119a17.969187 17.969187 0 0 0 15.680804-9.190394l142.800262-255.005808L731.703265 510.614683a17.974307 17.974307 0 0 0 15.680804 9.19449 17.974307 17.974307 0 0 0 15.681828-9.19449l158.379701-283.009071c4.845025-8.658998 1.751868-19.608428-6.902011-24.455501-8.663094-4.847073-19.6115-1.754939-24.46062 6.904059l-142.698898 254.992497-142.698898-254.992497a17.970211 17.970211 0 1 0-31.361607-0.004096L430.523301 465.046667 287.923721 210.059289a17.975331 17.975331 0 0 0-15.680804-9.197562 17.972259 17.972259 0 0 0-15.680804 9.192443l-158.379701 283.012143c-4.851169 8.658998-1.758011 19.610476 6.900987 24.455501z"
          fill="#58DFFD" p-id="2014"></path>
    <path d="M921.968803 510.614683c4.849121-8.658998 1.750844-19.608428-6.90201-24.452429-8.664118-4.848097-19.6115-1.754939-24.461645 6.904059L747.907274 748.055738 605.203257 493.066313a17.96714 17.96714 0 0 0-15.676708-9.193467h-0.004096a17.96714 17.96714 0 0 0-15.677732 9.189371L431.046507 748.055738 288.445902 493.070408a17.96714 17.96714 0 1 0-31.362631-0.004095l-158.384821 283.007023c-4.845025 8.663094-1.756987 19.610476 6.90713 24.46062a17.929256 17.929256 0 0 0 8.756267 2.291456c6.297919 0 12.403347-3.318412 15.695139-9.198586l142.698897-254.98021 142.600605 254.976114a17.952805 17.952805 0 0 0 15.672613 9.193467h0.008191a17.969187 17.969187 0 0 0 15.676708-9.1863l142.804358-255.006831L732.226471 793.626826a17.960996 17.960996 0 0 0 15.676708 9.190394 17.964068 17.964068 0 0 0 15.680804-9.190394l158.38482-283.012143z"
          fill="#58DFFD" p-id="2015"></path>
</svg>